<svg xmlns="http://www.w3.org/2000/svg" width="721" height="807" viewBox="0 0 721 807">
<g>
<path d="M 0.00 0.00 L 721.00 0.00 L 721.00 807.00 L 0.00 807.00 ZM 350.13 802.94 C353.08,803.47 359.33,803.72 364.00,803.51 C366.20,803.41 367.65,803.47 369.10,803.38 C375.51,802.99 381.75,799.72 451.50,766.99 C474.05,756.42 499.02,744.71 507.00,740.98 C530.39,730.04 601.62,697.32 663.00,669.32 C673.17,664.68 683.36,659.80 685.63,658.47 C692.01,654.74 701.36,644.68 704.87,637.75 C705.59,636.35 706.21,635.38 706.77,634.37 C711.01,626.66 711.01,616.62 710.99,395.68 C710.99,377.25 710.99,357.34 710.99,335.84 C711.00,59.81 710.94,50.99 709.12,45.12 C706.47,36.62 703.15,31.40 696.14,24.72 C689.38,18.26 680.36,13.54 671.96,12.03 C668.42,11.40 557.56,11.32 356.50,11.82 L 46.50 12.58 L 40.68 14.89 C28.21,19.83 17.67,30.65 12.78,43.50 L 10.50 49.50 L 10.24 336.97 L 9.98 624.44 L 12.05 630.66 C14.76,638.81 20.48,647.53 26.59,652.84 C32.16,657.67 38.83,661.04 75.50,677.54 C112.57,694.22 192.45,731.23 301.00,782.04 C340.45,800.50 343.33,801.73 350.13,802.94 ZM 290.00 290.25 L 290.00 395.00 L 241.00 395.00 L 241.00 99.82 L 284.75 100.27 C333.52,100.78 336.73,101.14 349.77,107.55 C363.27,114.19 371.47,124.95 375.72,141.60 C377.29,147.73 377.49,153.85 377.46,196.50 C377.44,242.89 377.36,244.76 375.23,252.35 C369.95,271.18 359.65,281.03 338.91,287.06 C332.75,288.85 328.00,289.31 310.75,289.73 ZM 573.65 397.09 C562.60,399.37 535.31,399.59 525.00,397.48 C505.39,393.48 493.69,385.51 487.06,371.65 C485.99,369.40 485.09,367.64 484.34,365.81 C480.49,356.45 480.49,345.51 480.50,260.51 C480.50,256.51 480.50,252.34 480.50,248.00 C480.50,244.07 480.50,240.29 480.50,236.64 C480.49,150.43 480.49,139.73 484.15,130.49 C484.83,128.79 485.63,127.13 486.57,125.07 C493.32,110.31 507.07,101.39 528.36,97.96 C538.62,96.30 569.45,97.21 577.33,99.40 C592.49,103.61 604.43,112.96 610.49,125.37 C616.06,136.77 617.00,145.07 617.00,182.65 L 617.00 215.04 L 569.50 214.50 L 569.00 184.00 C568.54,156.06 568.33,153.17 566.50,149.56 C563.21,143.10 560.19,141.55 550.04,141.15 C538.32,140.70 532.86,142.89 529.99,149.21 C528.11,153.36 528.04,156.50 528.02,248.28 C528.00,326.11 528.24,343.65 529.36,346.33 C532.41,353.62 542.00,357.86 552.49,356.54 C558.86,355.75 563.60,352.85 566.45,348.00 C568.38,344.70 568.52,342.68 568.80,312.75 L 569.10 281.00 L 617.19 281.00 L 616.73 317.25 C616.22,357.03 615.79,360.53 609.91,372.17 C603.36,385.15 591.29,393.45 573.65,397.09 ZM 214.00 352.03 L 214.00 395.00 L 103.00 395.00 L 103.00 100.00 L 214.00 100.00 L 214.00 144.00 L 151.00 144.00 L 151.00 227.00 L 211.04 227.00 L 210.50 270.50 L 180.74 270.76 L 150.98 271.03 L 151.24 311.26 L 151.50 351.50 ZM 452.00 344.25 L 452.00 395.00 L 403.00 395.00 L 403.00 100.00 L 453.33 100.00 L 452.67 196.75 C452.30,249.96 452.00,316.34 452.00,344.25 ZM 276.76 563.50 L 267.60 589.00 L 227.78 589.00 L 228.46 586.31 C228.83,584.84 238.36,559.30 249.63,529.56 C260.91,499.83 273.31,467.06 277.19,456.75 L 284.24 438.00 L 305.52 438.00 C324.85,438.00 326.85,438.16 327.47,439.75 C328.75,443.03 368.77,547.43 376.40,567.40 C380.58,578.35 384.00,587.69 384.00,588.15 C384.00,588.62 375.01,589.00 364.02,589.00 C362.15,589.00 360.45,589.01 358.89,589.02 C349.63,589.06 345.64,589.08 343.28,587.12 C341.10,585.31 340.33,581.79 338.10,575.00 C336.38,569.78 334.61,564.93 334.17,564.23 C333.54,563.25 327.04,563.03 305.06,563.23 ZM 213.77 571.26 L 213.50 588.50 L 158.43 588.76 C128.13,588.90 103.05,588.71 102.68,588.34 C102.30,587.97 102.00,554.22 102.00,513.33 L 102.00 439.00 L 209.00 439.00 L 209.00 474.00 L 139.94 474.00 L 140.50 497.50 L 171.25 497.76 L 202.00 498.03 L 202.00 531.00 L 139.93 531.00 L 140.22 542.25 L 140.50 553.50 L 177.27 553.76 L 214.05 554.02 ZM 582.42 589.38 C576.29,590.95 559.13,592.12 553.00,591.38 C533.22,589.00 515.52,580.46 502.53,567.06 L 498.56 562.97 L 511.02 550.48 C517.87,543.62 523.89,538.00 524.39,538.00 C524.90,538.00 527.86,540.42 530.96,543.38 C540.20,552.19 551.90,557.00 564.12,557.00 C572.04,557.00 575.18,555.99 578.54,552.36 C581.40,549.28 581.78,544.55 579.43,541.20 C577.19,538.01 569.92,534.59 556.85,530.60 C531.91,522.97 524.38,519.35 515.91,510.89 C508.10,503.11 504.92,496.22 504.26,485.71 C502.93,464.37 515.76,446.43 537.81,438.81 C543.68,436.78 546.40,436.50 560.00,436.50 C570.23,436.50 577.20,436.98 580.50,437.90 C592.59,441.28 603.86,447.26 612.00,454.62 L 616.12 458.34 L 604.83 469.67 C598.62,475.90 593.24,481.00 592.89,481.00 C592.53,481.00 589.67,479.45 586.53,477.56 C571.01,468.21 549.86,466.27 544.05,473.66 C539.54,479.40 543.12,486.31 552.85,490.61 C555.90,491.96 564.19,494.89 571.29,497.13 C596.04,504.93 609.93,514.16 615.76,526.69 C619.31,534.31 620.05,547.20 617.49,556.69 C613.21,572.49 599.92,584.88 582.42,589.38 ZM 450.76 531.75 L 450.50 588.50 L 430.75 588.77 L 411.00 589.04 L 411.00 475.00 L 369.00 475.00 L 369.00 439.00 L 430.75 439.00 L 492.50 439.00 L 492.86 457.00 L 493.22 475.00 L 451.02 475.00 ZM 401.87 727.86 C379.53,736.19 360.85,742.98 360.37,742.96 C359.45,742.91 338.20,735.04 261.50,706.33 C235.65,696.65 213.97,688.46 213.33,688.12 C213.32,688.12 213.32,688.11 213.32,688.11 C213.32,687.77 279.43,687.37 360.78,687.22 C442.35,687.06 508.90,687.16 508.90,687.43 L 508.90 687.44 C508.37,687.97 468.92,702.87 401.87,727.86 ZM 290.00 142.69 L 290.00 247.00 L 300.37 247.00 C316.18,247.00 322.77,243.82 327.36,234.00 C329.33,229.78 329.48,227.50 329.82,197.30 C330.21,163.03 329.68,157.11 325.71,151.24 C322.01,145.77 317.04,144.06 302.66,143.33 ZM 289.74 529.41 C290.67,530.33 322.00,530.10 322.00,529.17 C322.00,528.52 308.71,489.34 306.34,483.00 C306.23,482.70 306.14,482.44 306.00,482.41 C305.43,482.29 303.99,486.39 296.03,509.16 L 295.68 510.16 C292.09,520.42 289.41,529.08 289.74,529.41 Z" fill="rgb(6,6,6)"/>
<path d="M 350.13 802.94 C343.33,801.73 340.45,800.50 301.00,782.04 C192.45,731.23 112.57,694.22 75.50,677.54 C38.83,661.04 32.16,657.67 26.59,652.84 C20.48,647.53 14.76,638.81 12.05,630.66 L 9.98 624.44 L 10.24 336.97 L 10.50 49.50 L 12.78 43.50 C17.67,30.65 28.21,19.83 40.68,14.89 L 46.50 12.58 L 356.50 11.82 C557.56,11.32 668.42,11.40 671.96,12.03 C680.36,13.54 689.38,18.26 696.14,24.72 C703.15,31.40 706.47,36.62 709.12,45.12 C710.94,50.99 711.00,59.81 710.99,335.84 C710.98,648.69 711.46,624.77 704.87,637.75 C701.36,644.68 692.01,654.74 685.63,658.47 C683.36,659.80 673.17,664.68 663.00,669.32 C601.62,697.32 530.39,730.04 507.00,740.98 C499.02,744.71 474.05,756.42 451.50,766.99 C366.00,807.11 375.93,802.96 364.00,803.51 C359.33,803.72 353.08,803.47 350.13,802.94 ZM 401.87 727.86 C468.92,702.87 508.37,687.97 508.90,687.44 C509.17,687.16 442.52,687.06 360.78,687.22 C279.04,687.37 212.68,687.78 213.33,688.12 C213.97,688.46 235.65,696.65 261.50,706.33 C338.20,735.04 359.45,742.91 360.37,742.96 C360.85,742.98 379.53,736.19 401.87,727.86 ZM 582.42 589.38 C599.92,584.88 613.21,572.49 617.49,556.69 C620.05,547.20 619.31,534.31 615.76,526.69 C609.93,514.16 596.04,504.93 571.29,497.13 C564.19,494.89 555.90,491.96 552.85,490.61 C543.12,486.31 539.54,479.40 544.05,473.66 C549.86,466.27 571.01,468.21 586.53,477.56 C589.67,479.45 592.53,481.00 592.89,481.00 C593.24,481.00 598.62,475.90 604.83,469.67 L 616.12 458.34 L 612.00 454.62 C603.86,447.26 592.59,441.28 580.50,437.90 C577.20,436.98 570.23,436.50 560.00,436.50 C546.40,436.50 543.68,436.78 537.81,438.81 C515.76,446.43 502.93,464.37 504.26,485.71 C504.92,496.22 508.10,503.11 515.91,510.89 C524.38,519.35 531.91,522.97 556.85,530.60 C569.92,534.59 577.19,538.01 579.43,541.20 C581.78,544.55 581.40,549.28 578.54,552.36 C575.18,555.99 572.04,557.00 564.12,557.00 C551.90,557.00 540.20,552.19 530.96,543.38 C527.86,540.42 524.90,538.00 524.39,538.00 C523.89,538.00 517.87,543.62 511.02,550.48 L 498.56 562.97 L 502.53 567.06 C515.52,580.46 533.22,589.00 553.00,591.38 C559.13,592.12 576.29,590.95 582.42,589.38 ZM 213.77 571.26 L 214.05 554.02 L 177.27 553.76 L 140.50 553.50 L 140.22 542.25 L 139.93 531.00 L 170.97 531.00 L 202.00 531.00 L 202.00 514.51 L 202.00 498.03 L 171.25 497.76 L 140.50 497.50 L 140.22 485.75 L 139.94 474.00 L 174.47 474.00 L 209.00 474.00 L 209.00 456.50 L 209.00 439.00 L 155.50 439.00 L 102.00 439.00 L 102.00 513.33 C102.00,554.22 102.30,587.97 102.68,588.34 C103.05,588.71 128.13,588.90 158.43,588.76 L 213.50 588.50 L 213.77 571.26 ZM 272.18 576.25 L 276.76 563.50 L 305.06 563.23 C327.04,563.03 333.54,563.25 334.17,564.23 C334.61,564.93 336.38,569.78 338.10,575.00 C343.15,590.32 340.70,589.00 364.02,589.00 C375.01,589.00 384.00,588.62 384.00,588.15 C384.00,587.69 380.58,578.35 376.40,567.40 C368.77,547.43 328.75,443.03 327.47,439.75 C326.85,438.16 324.85,438.00 305.52,438.00 L 284.24 438.00 L 277.19 456.75 C273.31,467.06 260.91,499.83 249.63,529.56 C238.36,559.30 228.83,584.84 228.46,586.31 L 227.78 589.00 L 247.69 589.00 L 267.60 589.00 L 272.18 576.25 ZM 450.76 531.75 L 451.02 475.00 L 472.12 475.00 L 493.22 475.00 L 492.86 457.00 L 492.50 439.00 L 430.75 439.00 L 369.00 439.00 L 369.00 457.00 L 369.00 475.00 L 390.00 475.00 L 411.00 475.00 L 411.00 532.02 L 411.00 589.04 L 430.75 588.77 L 450.50 588.50 L 450.76 531.75 ZM 573.65 397.09 C591.29,393.45 603.36,385.15 609.91,372.17 C615.79,360.53 616.22,357.03 616.73,317.25 L 617.19 281.00 L 593.15 281.00 L 569.10 281.00 L 568.80 312.75 C568.52,342.68 568.38,344.70 566.45,348.00 C563.60,352.85 558.86,355.75 552.49,356.54 C542.00,357.86 532.41,353.62 529.36,346.33 C528.24,343.65 528.00,326.11 528.02,248.28 C528.04,156.50 528.11,153.36 529.99,149.21 C532.86,142.89 538.32,140.70 550.04,141.15 C560.19,141.55 563.21,143.10 566.50,149.56 C568.33,153.17 568.54,156.06 569.00,184.00 L 569.50 214.50 L 593.25 214.77 L 617.00 215.04 L 617.00 182.65 C617.00,145.07 616.06,136.77 610.49,125.37 C604.43,112.96 592.49,103.61 577.33,99.40 C569.45,97.21 538.62,96.30 528.36,97.96 C507.07,101.39 493.32,110.31 486.57,125.07 C480.28,138.83 480.50,134.27 480.50,248.00 C480.50,362.43 480.23,357.36 487.06,371.65 C493.69,385.51 505.39,393.48 525.00,397.48 C535.31,399.59 562.60,399.37 573.65,397.09 ZM 214.00 373.51 L 214.00 352.03 L 182.75 351.76 L 151.50 351.50 L 151.24 311.26 L 150.98 271.03 L 180.74 270.76 L 210.50 270.50 L 210.77 248.75 L 211.04 227.00 L 181.02 227.00 L 151.00 227.00 L 151.00 185.50 L 151.00 144.00 L 182.50 144.00 L 214.00 144.00 L 214.00 122.00 L 214.00 100.00 L 158.50 100.00 L 103.00 100.00 L 103.00 247.50 L 103.00 395.00 L 158.50 395.00 L 214.00 395.00 L 214.00 373.51 ZM 290.00 342.62 L 290.00 290.25 L 310.75 289.73 C328.00,289.31 332.75,288.85 338.91,287.06 C359.65,281.03 369.95,271.18 375.23,252.35 C377.36,244.76 377.44,242.89 377.46,196.50 C377.49,153.85 377.29,147.73 375.72,141.60 C371.47,124.95 363.27,114.19 349.77,107.55 C336.73,101.14 333.52,100.78 284.75,100.27 L 241.00 99.82 L 241.00 247.41 L 241.00 395.00 L 265.50 395.00 L 290.00 395.00 L 290.00 342.62 ZM 452.00 344.25 C452.00,316.34 452.30,249.96 452.67,196.75 L 453.33 100.00 L 428.16 100.00 L 403.00 100.00 L 403.00 247.50 L 403.00 395.00 L 427.50 395.00 L 452.00 395.00 L 452.00 344.25 ZM 289.74 529.41 C289.41,529.08 292.09,520.42 295.68,510.16 C305.86,481.05 305.73,481.38 306.34,483.00 C308.71,489.34 322.00,528.52 322.00,529.17 C322.00,530.10 290.67,530.33 289.74,529.41 ZM 290.00 194.85 L 290.00 142.69 L 302.66 143.33 C317.04,144.06 322.01,145.77 325.71,151.24 C329.68,157.11 330.21,163.03 329.82,197.30 C329.48,227.50 329.33,229.78 327.36,234.00 C322.77,243.82 316.18,247.00 300.37,247.00 L 290.00 247.00 L 290.00 194.85 Z" fill="rgb(254,254,254)"/>
</g>
</svg>