<svg xmlns="http://www.w3.org/2000/svg" viewBox="0 0 714 805" role="img" aria-label="Epic Eats">
  <path d="M 300 475 L 285 517 L 316 517 L 316 513 L 314 510 L 302 475 Z M 286 131 L 286 234 L 311 233 L 318 230 L 322 226 L 325 217 L 325 147 L 321 137 L 315 133 L 303 132 L 302 131 Z M 13 24 L 7 35 L 5 44 L 5 609 L 7 618 L 11 627 L 22 641 L 35 650 L 49 657 L 51 657 L 102 683 L 104 683 L 131 697 L 133 697 L 325 791 L 339 797 L 347 799 L 368 799 L 383 794 L 408 781 L 410 781 L 571 701 L 573 701 L 622 676 L 624 676 L 665 655 L 667 655 L 685 645 L 696 635 L 705 620 L 708 609 L 708 45 L 706 36 L 702 28 L 692 16 L 678 7 L 665 3 L 658 3 L 657 2 L 58 2 L 57 3 L 49 3 L 33 8 L 23 14 Z M 211 678 L 212 677 L 215 678 L 497 678 L 500 677 L 501 678 L 494 682 L 452 699 L 445 703 L 438 705 L 398 723 L 391 725 L 374 733 L 362 736 L 351 736 L 342 734 L 286 710 L 279 708 L 267 702 L 260 700 Z M 368 427 L 486 427 L 487 428 L 487 462 L 486 463 L 446 463 L 446 574 L 445 575 L 409 575 L 408 574 L 408 463 L 368 463 L 367 462 L 367 428 Z M 282 427 L 321 427 L 338 468 L 339 473 L 351 501 L 352 506 L 360 524 L 361 529 L 371 552 L 372 557 L 379 573 L 378 575 L 339 575 L 336 571 L 328 548 L 274 548 L 272 551 L 265 573 L 263 575 L 225 575 L 224 574 L 245 521 L 246 516 L 254 498 L 255 493 L 261 480 L 262 475 L 268 462 L 269 457 L 277 439 L 278 434 Z M 99 427 L 204 427 L 205 428 L 205 462 L 204 463 L 136 463 L 136 485 L 197 485 L 198 486 L 198 517 L 197 518 L 136 518 L 136 540 L 207 540 L 208 541 L 208 574 L 207 575 L 99 575 L 98 574 L 98 428 Z M 530 427 L 546 424 L 562 424 L 578 427 L 594 434 L 601 439 L 609 447 L 588 473 L 577 465 L 569 461 L 559 458 L 545 458 L 539 461 L 536 465 L 536 472 L 539 476 L 547 480 L 574 487 L 591 494 L 597 498 L 606 507 L 609 512 L 612 522 L 612 539 L 610 547 L 607 553 L 601 561 L 593 568 L 576 576 L 566 577 L 565 578 L 549 578 L 548 577 L 540 577 L 530 575 L 518 571 L 506 565 L 492 553 L 515 528 L 531 540 L 546 545 L 552 545 L 553 546 L 563 545 L 569 543 L 574 537 L 574 531 L 569 525 L 556 520 L 553 520 L 531 513 L 520 508 L 511 502 L 505 496 L 500 487 L 498 479 L 498 467 L 501 454 L 506 445 L 514 436 L 521 431 Z M 401 89 L 402 90 L 447 90 L 448 89 L 449 90 L 449 383 L 448 384 L 400 384 L 399 383 L 400 382 L 400 90 Z M 238 89 L 239 90 L 324 90 L 325 91 L 335 92 L 352 99 L 363 108 L 371 122 L 374 133 L 374 141 L 375 142 L 375 219 L 374 220 L 373 233 L 368 248 L 364 254 L 354 264 L 341 271 L 323 275 L 286 276 L 286 383 L 285 384 L 238 384 L 237 383 L 237 90 Z M 100 89 L 101 90 L 210 90 L 211 91 L 211 134 L 210 135 L 149 135 L 149 215 L 207 215 L 208 216 L 208 259 L 207 260 L 149 260 L 149 339 L 210 339 L 211 340 L 211 383 L 210 384 L 99 384 L 98 383 L 98 91 Z M 528 85 L 559 85 L 574 88 L 584 92 L 592 97 L 601 106 L 605 112 L 610 124 L 611 134 L 612 135 L 612 199 L 613 200 L 612 201 L 566 201 L 565 202 L 564 201 L 564 143 L 562 136 L 559 132 L 553 129 L 547 129 L 546 128 L 536 129 L 532 131 L 527 136 L 524 145 L 524 328 L 527 337 L 532 342 L 537 344 L 551 344 L 556 342 L 561 337 L 564 327 L 564 272 L 565 271 L 612 271 L 613 272 L 613 329 L 612 330 L 611 343 L 608 353 L 600 367 L 589 377 L 580 382 L 561 387 L 551 387 L 550 388 L 529 387 L 515 384 L 501 378 L 492 371 L 484 361 L 478 347 L 476 339 L 476 331 L 475 330 L 475 144 L 476 143 L 477 129 L 480 119 L 484 111 L 494 99 L 509 90 Z" fill="#000" fill-rule="evenodd"/>
  <path d="M 212 678 L 218 681 L 220 681 L 225 684 L 227 684 L 232 687 L 234 687 L 239 690 L 241 690 L 246 693 L 248 693 L 253 696 L 255 696 L 260 699 L 262 699 L 272 704 L 274 704 L 279 707 L 281 707 L 291 712 L 298 714 L 310 720 L 312 720 L 315 722 L 322 724 L 327 727 L 329 727 L 342 733 L 350 734 L 351 735 L 362 735 L 363 734 L 367 734 L 368 733 L 374 732 L 379 729 L 381 729 L 391 724 L 398 722 L 403 719 L 405 719 L 410 716 L 412 716 L 417 713 L 419 713 L 424 710 L 426 710 L 431 707 L 433 707 L 438 704 L 445 702 L 452 698 L 459 696 L 464 693 L 466 693 L 471 690 L 473 690 L 478 687 L 480 687 L 485 684 L 487 684 L 492 681 L 494 681 L 500 678 L 498 678 L 497 679 L 215 679 L 214 678 Z M 368 428 L 368 462 L 408 462 L 409 463 L 409 574 L 445 574 L 445 463 L 446 462 L 486 462 L 486 428 Z M 282 428 L 279 434 L 276 444 L 274 447 L 274 449 L 272 452 L 272 454 L 270 457 L 269 462 L 263 475 L 262 480 L 256 493 L 255 498 L 253 501 L 253 503 L 247 516 L 246 521 L 240 534 L 239 539 L 237 542 L 237 544 L 235 547 L 235 549 L 233 552 L 232 557 L 230 560 L 230 562 L 228 565 L 228 567 L 226 570 L 225 574 L 263 574 L 266 568 L 271 551 L 274 547 L 328 547 L 330 549 L 330 551 L 331 552 L 332 557 L 334 560 L 337 571 L 339 574 L 378 574 L 321 428 Z M 300 474 L 302 474 L 303 475 L 308 491 L 313 502 L 315 510 L 317 513 L 317 517 L 316 518 L 285 518 L 284 517 L 284 515 L 287 509 L 290 498 L 292 495 L 295 484 L 297 481 L 298 476 Z M 99 428 L 99 574 L 207 574 L 207 541 L 136 541 L 135 540 L 135 518 L 136 517 L 197 517 L 197 486 L 136 486 L 135 485 L 135 463 L 136 462 L 204 462 L 204 428 Z M 530 428 L 527 430 L 525 430 L 521 432 L 514 437 L 507 445 L 502 454 L 501 460 L 500 461 L 500 466 L 499 467 L 499 479 L 500 480 L 501 487 L 506 496 L 511 501 L 520 507 L 531 512 L 533 512 L 543 516 L 546 516 L 553 519 L 556 519 L 569 524 L 575 531 L 575 537 L 569 544 L 567 544 L 563 546 L 553 547 L 552 546 L 542 545 L 541 544 L 536 543 L 533 541 L 531 541 L 529 539 L 523 536 L 516 529 L 515 529 L 493 552 L 493 553 L 499 559 L 506 564 L 518 570 L 520 570 L 523 572 L 526 572 L 530 574 L 534 574 L 535 575 L 539 575 L 540 576 L 548 576 L 549 577 L 565 577 L 566 576 L 572 576 L 573 575 L 576 575 L 577 574 L 582 573 L 590 569 L 598 563 L 604 556 L 609 547 L 609 544 L 611 539 L 611 522 L 610 521 L 610 518 L 609 517 L 608 512 L 606 510 L 605 507 L 597 499 L 591 495 L 574 488 L 571 488 L 567 486 L 564 486 L 560 484 L 557 484 L 556 483 L 553 483 L 552 482 L 547 481 L 539 477 L 535 472 L 535 465 L 537 462 L 542 458 L 544 458 L 545 457 L 559 457 L 560 458 L 563 458 L 564 459 L 569 460 L 577 464 L 588 472 L 588 471 L 599 459 L 608 447 L 601 440 L 594 435 L 584 430 L 582 430 L 578 428 L 575 428 L 574 427 L 563 426 L 562 425 L 546 425 L 545 426 L 538 426 L 537 427 Z M 401 90 L 401 382 L 400 383 L 448 383 L 448 90 L 447 91 L 402 91 Z M 238 90 L 238 383 L 285 383 L 285 276 L 286 275 L 312 275 L 313 274 L 323 274 L 324 273 L 330 273 L 331 272 L 341 270 L 354 263 L 363 254 L 367 248 L 367 246 L 369 243 L 369 241 L 371 237 L 371 234 L 372 233 L 372 229 L 373 228 L 373 220 L 374 219 L 374 142 L 373 141 L 373 133 L 372 132 L 370 122 L 365 112 L 362 108 L 352 100 L 344 96 L 342 96 L 335 93 L 325 92 L 324 91 L 239 91 Z M 286 130 L 302 130 L 303 131 L 311 131 L 312 132 L 315 132 L 322 137 L 326 147 L 326 217 L 325 218 L 325 222 L 323 226 L 318 231 L 311 234 L 304 234 L 303 235 L 286 235 L 285 234 L 285 131 Z M 100 90 L 99 91 L 99 383 L 210 383 L 210 340 L 149 340 L 148 339 L 148 260 L 149 259 L 207 259 L 207 216 L 149 216 L 148 215 L 148 135 L 149 134 L 210 134 L 210 91 L 101 91 Z M 528 86 L 527 87 L 522 87 L 521 88 L 518 88 L 517 89 L 514 89 L 511 91 L 509 91 L 501 95 L 494 100 L 485 111 L 481 119 L 481 121 L 479 125 L 479 128 L 478 129 L 478 133 L 477 134 L 477 143 L 476 144 L 476 330 L 477 331 L 477 339 L 478 340 L 479 347 L 485 361 L 492 369 L 492 370 L 493 370 L 501 377 L 515 383 L 518 383 L 523 385 L 528 385 L 529 386 L 540 386 L 541 387 L 561 386 L 562 385 L 567 385 L 568 384 L 571 384 L 572 383 L 580 381 L 589 376 L 599 367 L 607 353 L 607 351 L 609 347 L 609 344 L 610 343 L 610 339 L 611 338 L 611 330 L 612 329 L 612 272 L 565 272 L 565 327 L 564 328 L 564 332 L 562 337 L 556 343 L 551 345 L 537 345 L 532 343 L 526 337 L 524 332 L 524 329 L 523 328 L 523 145 L 524 144 L 524 141 L 526 136 L 532 130 L 536 128 L 546 127 L 547 128 L 553 128 L 559 131 L 563 136 L 564 142 L 565 143 L 565 201 L 566 200 L 612 200 L 611 199 L 611 135 L 610 134 L 609 124 L 604 112 L 600 106 L 592 98 L 586 95 L 584 93 L 574 89 L 566 88 L 565 87 L 560 87 L 559 86 Z" fill="#fff" fill-rule="evenodd"/>
</svg>
